<svg width="502" height="572" viewBox="0 0 502 572" fill="none" xmlns="http://www.w3.org/2000/svg">
<path d="M0 8.13118V493.131L72 571.5V493.131V0.342082C28.8834 1.88616 0 8.13118 0 8.13118Z" fill="url(#paint0_linear_56_17)"/>
<path d="M72 571.5H157.5V493.131V407V117.214L72 0.342082V493.131V571.5Z" fill="url(#paint1_linear_56_17)"/>
<path d="M157.5 407H369.5L295.125 305.336C295.125 305.336 267.06 305.336 220.75 342C174.44 378.664 157.5 407 157.5 407Z" fill="url(#paint2_linear_56_17)"/>
<path d="M459.5 493.131C459.5 493.131 498.5 274.131 369.5 115.131C322.205 56.8377 259.923 26.9056 200 12.3745C153.121 1.00634 107.685 -0.935872 72 0.342082L157.5 117.214L220.75 203.671L295.125 305.336L369.5 407H157.5V493.131H459.5Z" fill="url(#paint3_linear_56_17)"/>
<path d="M369.5 115.131C498.5 274.131 459.5 493.131 459.5 493.131L499 425.5C499 425.5 519.909 305.336 443.5 161C367.091 16.6645 200 12.3745 200 12.3745C259.923 26.9056 322.205 56.8377 369.5 115.131Z" fill="url(#paint4_linear_56_17)"/>
<g style="mix-blend-mode:luminosity">
<path d="M72 571.5H157.5V493.131V407V117.214L72 0.342082V493.131V571.5Z" fill="url(#paint5_linear_56_17)"/>
<path d="M369.5 115.131C498.5 274.131 459.5 493.131 459.5 493.131L499 425.5C499 425.5 519.909 305.336 443.5 161C367.091 16.6645 200 12.3745 200 12.3745C259.923 26.9056 322.205 56.8377 369.5 115.131Z" fill="url(#paint6_linear_56_17)"/>
<path fill-rule="evenodd" clip-rule="evenodd" d="M295.125 305.336L369.5 407L220.75 342C267.06 305.336 295.125 305.336 295.125 305.336Z" fill="url(#paint7_linear_56_17)"/>
<path d="M157.5 407H369.5L220.75 342C174.44 378.664 157.5 407 157.5 407Z" fill="url(#paint8_linear_56_17)"/>
</g>
<defs>
<linearGradient id="paint0_linear_56_17" x1="-3.81576e-07" y1="13.5" x2="250.808" y2="571.5" gradientUnits="userSpaceOnUse">
<stop stop-color="#84FF4A"/>
<stop offset="1" stop-color="#2353FA"/>
</linearGradient>
<linearGradient id="paint1_linear_56_17" x1="-3.81576e-07" y1="13.5" x2="250.808" y2="571.5" gradientUnits="userSpaceOnUse">
<stop stop-color="#84FF4A"/>
<stop offset="1" stop-color="#2353FA"/>
</linearGradient>
<linearGradient id="paint2_linear_56_17" x1="-3.81576e-07" y1="13.5" x2="250.808" y2="571.5" gradientUnits="userSpaceOnUse">
<stop stop-color="#84FF4A"/>
<stop offset="1" stop-color="#2353FA"/>
</linearGradient>
<linearGradient id="paint3_linear_56_17" x1="-3.81576e-07" y1="13.5" x2="250.808" y2="571.5" gradientUnits="userSpaceOnUse">
<stop stop-color="#84FF4A"/>
<stop offset="1" stop-color="#2353FA"/>
</linearGradient>
<linearGradient id="paint4_linear_56_17" x1="-3.81576e-07" y1="13.5" x2="250.808" y2="571.5" gradientUnits="userSpaceOnUse">
<stop stop-color="#84FF4A"/>
<stop offset="1" stop-color="#2353FA"/>
</linearGradient>
<linearGradient id="paint5_linear_56_17" x1="439" y1="286" x2="-8.95885e-06" y2="498.5" gradientUnits="userSpaceOnUse">
<stop stop-color="#2B2B2B"/>
<stop offset="1" stop-color="#919191"/>
</linearGradient>
<linearGradient id="paint6_linear_56_17" x1="439" y1="286" x2="-8.95885e-06" y2="498.5" gradientUnits="userSpaceOnUse">
<stop stop-color="#2B2B2B"/>
<stop offset="1" stop-color="#919191"/>
</linearGradient>
<linearGradient id="paint7_linear_56_17" x1="439" y1="286" x2="-8.95885e-06" y2="498.5" gradientUnits="userSpaceOnUse">
<stop stop-color="#2B2B2B"/>
<stop offset="1" stop-color="#919191"/>
</linearGradient>
<linearGradient id="paint8_linear_56_17" x1="439" y1="286" x2="-8.95885e-06" y2="498.5" gradientUnits="userSpaceOnUse">
<stop stop-color="#2B2B2B"/>
<stop offset="1" stop-color="#919191"/>
</linearGradient>
</defs>
</svg>
